<svg
    xmlns="http://www.w3.org/2000/svg"
    viewBox="0 0 16 16"
    width="16"
    height="16"
>
    <path
        d="M10.561 8.073a6.005 6.005 0 0 1 3.432 5.142.75.75 0 1 1-1.498.07 4.5 4.5 0 0 0-8.99 0 .75.75 0 0 1-1.498-.07 6.004 6.004 0 0 1 3.431-5.142 3.999 3.999 0 1 1 5.123 0ZM10.5 5a2.5 2.5 0 1 0-5 0 2.5 2.5 0 0 0 5 0Z"
        style="font-feature-settings:normal;font-variant-alternates:normal;font-variant-caps:normal;font-variant-ligatures:none;font-variant-numeric:normal;font-variant-position:normal;isolation:auto;mix-blend-mode:normal;shape-padding:0;text-decoration-color:#000;text-decoration-line:none;text-decoration-style:solid;text-indent:0;text-transform:none"
        fill="gray"
        font-family="sans-serif"
        font-weight="400"
        overflow="visible"
        white-space="normal"
    />
</svg>